<?xml version="1.0" encoding="UTF-8"?>
<svg width="800px" height="360px" viewBox="0 0 800 360" version="1.1" xmlns="http://www.w3.org/2000/svg" xmlns:xlink="http://www.w3.org/1999/xlink">
    <title>Logo</title>
    <g id="Logo" stroke="none" stroke-width="1" fill="none" fill-rule="evenodd">
        <g transform="translate(50.000000, 50.000000)">
            <path d="M371.585938,180 L371.585938,165.693359 L368.949219,165.693359 L368.949219,177.363281 L335.111328,177.363281 L335.111328,111.542969 L343.070312,111.542969 L343.070312,108.90625 L324.466797,108.90625 L324.466797,111.542969 L332.425781,111.542969 L332.425781,177.363281 L324.466797,177.363281 L324.466797,180 L371.585938,180 Z M405.326172,181.025391 C409.36263,181.025391 412.870117,180.431315 415.848633,179.243164 C418.827148,178.055013 421.358073,176.305339 423.441406,173.994141 L423.441406,173.994141 L422.025391,171.943359 C420.13737,174.091797 417.866862,175.703125 415.213867,176.777344 C412.560872,177.851562 409.264974,178.388672 405.326172,178.388672 C399.792318,178.388672 395.153646,176.183268 391.410156,171.772461 C387.666667,167.361654 385.794922,161.966146 385.794922,155.585938 L385.794922,155.585938 L385.794922,151.826172 L425.394531,151.826172 L425.394531,147.773438 C425.394531,141.197917 423.514648,135.957031 419.754883,132.050781 C415.995117,128.144531 411.136719,126.191406 405.179688,126.191406 C398.96224,126.191406 393.73763,128.673503 389.505859,133.637695 C385.274089,138.601888 383.158203,144.876302 383.158203,152.460938 L383.158203,152.460938 L383.158203,155.585938 C383.158203,162.8125 385.347331,168.859049 389.725586,173.725586 C394.103841,178.592122 399.304036,181.025391 405.326172,181.025391 Z M422.757812,149.189453 L386.332031,149.189453 L386.185547,148.896484 C386.641276,143.167318 388.610677,138.390299 392.09375,134.56543 C395.576823,130.74056 399.938802,128.828125 405.179688,128.828125 C410.388021,128.828125 414.619792,130.610352 417.875,134.174805 C421.130208,137.739258 422.757812,142.207031 422.757812,147.578125 L422.757812,147.578125 L422.757812,149.189453 Z M455.375,181.025391 C456.677083,181.025391 457.84082,180.976562 458.866211,180.878906 C459.891602,180.78125 460.892578,180.602214 461.869141,180.341797 L461.869141,180.341797 L461.380859,177.949219 C459.948568,178.111979 458.825521,178.225911 458.011719,178.291016 C457.197917,178.35612 456.270182,178.388672 455.228516,178.388672 C452.819661,178.388672 450.882812,177.469076 449.417969,175.629883 C447.953125,173.79069 447.220703,170.70638 447.220703,166.376953 L447.220703,166.376953 L447.220703,129.853516 L460.208984,129.853516 L460.208984,127.167969 L447.220703,127.167969 L447.220703,112.910156 L444.535156,112.910156 L444.535156,127.167969 L434.769531,127.167969 L434.769531,129.853516 L444.535156,129.853516 L444.535156,166.376953 C444.535156,171.520182 445.454753,175.247396 447.293945,177.558594 C449.133138,179.869792 451.826823,181.025391 455.375,181.025391 Z M472.269531,125.751953 C473.897135,124.026693 475.166667,122.02474 476.078125,119.746094 C476.989583,117.467448 477.445312,114.879557 477.445312,111.982422 L477.445312,111.982422 L477.445312,103.828125 L474.808594,103.828125 L474.808594,112.080078 C474.808594,114.521484 474.458659,116.661784 473.758789,118.500977 C473.058919,120.340169 471.960286,122.236328 470.462891,124.189453 L470.462891,124.189453 L472.269531,125.751953 Z M502.201172,181.025391 C507.80013,181.025391 512.292318,179.739583 515.677734,177.167969 C519.063151,174.596354 520.755859,171.24349 520.755859,167.109375 C520.755859,162.877604 519.234049,159.581706 516.19043,157.22168 C513.14681,154.861654 508.679036,152.998047 502.787109,151.630859 C496.406901,150.166016 492.142578,148.457031 489.994141,146.503906 C487.845703,144.550781 486.771484,142.190755 486.771484,139.423828 C486.771484,136.624349 488.041016,134.158529 490.580078,132.026367 C493.119141,129.894206 496.86263,128.828125 501.810547,128.828125 C505.261068,128.828125 508.296549,129.332682 510.916992,130.341797 C513.537435,131.350911 515.69401,132.799479 517.386719,134.6875 L517.386719,134.6875 L517.386719,143.232422 L520.023438,143.232422 L520.023438,133.369141 C518.070312,131.188151 515.49056,129.446615 512.28418,128.144531 C509.077799,126.842448 505.586589,126.191406 501.810547,126.191406 C496.406901,126.191406 492.110026,127.469076 488.919922,130.024414 C485.729818,132.579753 484.134766,135.745443 484.134766,139.521484 C484.134766,143.557943 485.558919,146.658529 488.407227,148.823242 C491.255534,150.987956 495.788411,152.721354 502.005859,154.023438 C507.962891,155.325521 512.137695,157.124023 514.530273,159.418945 C516.922852,161.713867 518.119141,164.261068 518.119141,167.060547 C518.119141,170.055339 516.686849,172.692057 513.822266,174.970703 C510.957682,177.249349 507.083984,178.388672 502.201172,178.388672 C499.04362,178.388672 496.048828,177.932943 493.216797,177.021484 C490.384766,176.110026 488.008464,174.628906 486.087891,172.578125 L486.087891,172.578125 L486.087891,164.619141 L483.451172,164.619141 L483.451172,174.042969 C485.632161,176.223958 488.342122,177.932943 491.581055,179.169922 C494.819987,180.406901 498.360026,181.025391 502.201172,181.025391 Z M369.339844,280 L369.339844,271.455078 L361.722656,269.990234 L361.722656,219.892578 L374.808594,219.892578 L375.394531,227.851562 L386.332031,227.851562 L386.332031,208.90625 L322.953125,208.90625 L322.953125,227.851562 L333.841797,227.851562 L334.427734,219.892578 L347.464844,219.892578 L347.464844,269.990234 L339.847656,271.455078 L339.847656,280 L369.339844,280 Z M412.015625,214.521484 L412.015625,203.828125 L397.757812,203.828125 L397.757812,214.521484 L412.015625,214.521484 Z M418.851562,280 L418.851562,271.455078 L412.015625,269.990234 L412.015625,227.167969 L390.140625,227.167969 L390.140625,235.761719 L397.757812,237.226562 L397.757812,269.990234 L390.873047,271.455078 L390.873047,280 L418.851562,280 Z M449.857422,280 L449.857422,271.455078 L443.705078,269.990234 L443.705078,241.474609 C444.649089,240.139974 445.845378,239.106445 447.293945,238.374023 C448.742513,237.641602 450.427083,237.275391 452.347656,237.275391 C454.951823,237.275391 456.904948,238.081055 458.207031,239.692383 C459.509115,241.303711 460.160156,244.0625 460.160156,247.96875 L460.160156,247.96875 L460.160156,269.990234 L454.398438,271.455078 L454.398438,280 L480.130859,280 L480.130859,271.455078 L474.369141,269.990234 L474.369141,245.283203 C474.369141,244.827474 474.352865,244.379883 474.320312,243.94043 C474.28776,243.500977 474.271484,242.972005 474.271484,242.353516 C475.150391,240.758464 476.330404,239.513346 477.811523,238.618164 C479.292643,237.722982 481.042318,237.275391 483.060547,237.275391 C485.632161,237.275391 487.56901,238.056641 488.871094,239.619141 C490.173177,241.181641 490.824219,243.964844 490.824219,247.96875 L490.824219,247.96875 L490.824219,269.990234 L484.671875,271.455078 L484.671875,280 L511.966797,280 L511.966797,271.455078 L505.082031,269.990234 L505.082031,248.017578 C505.082031,240.660807 503.576497,235.183919 500.56543,231.586914 C497.554362,227.989909 493.444661,226.191406 488.236328,226.191406 C484.720703,226.191406 481.660807,226.988932 479.056641,228.583984 C476.452474,230.179036 474.336589,232.392578 472.708984,235.224609 C471.472005,232.197266 469.649089,229.934896 467.240234,228.4375 C464.83138,226.940104 461.934245,226.191406 458.548828,226.191406 C455.195964,226.191406 452.241862,226.883138 449.686523,228.266602 C447.131185,229.650065 445.007161,231.611328 443.314453,234.150391 L443.314453,234.150391 L442.728516,227.167969 L421.878906,227.167969 L421.878906,235.761719 L429.496094,237.226562 L429.496094,269.990234 L422.611328,271.455078 L422.611328,280 L449.857422,280 Z M541.361328,281.025391 C545.625651,281.025391 549.491211,280.439453 552.958008,279.267578 C556.424805,278.095703 559.248698,276.647135 561.429688,274.921875 L561.429688,274.921875 L557.572266,266.132812 C555.098307,267.5 552.819661,268.500977 550.736328,269.135742 C548.652995,269.770508 546.032552,270.087891 542.875,270.087891 C539.326823,270.087891 536.519206,268.964844 534.452148,266.71875 C532.385091,264.472656 531.221354,261.608073 530.960938,258.125 L530.960938,258.125 L531.058594,257.832031 L562.601562,257.832031 L562.601562,250.068359 C562.601562,242.744141 560.632161,236.933594 556.693359,232.636719 C552.754557,228.339844 547.220703,226.191095 540.091797,226.191095 C532.832682,226.158854 527.046549,228.681641 522.733398,233.759766 C518.420247,238.837891 516.263672,245.299479 516.263672,253.144531 L516.263672,253.144531 L516.263672,255.097656 C516.263672,262.617188 518.542318,268.818359 523.099609,273.701172 C527.656901,278.583984 533.744141,281.025391 541.361328,281.025391 Z M548.636719,248.408203 L531.15625,248.408203 L531.009766,248.164062 C531.367839,244.876302 532.311849,242.223307 533.841797,240.205078 C535.371745,238.186849 537.455078,237.177734 540.091797,237.177734 C542.95638,237.177734 545.09668,238.081055 546.512695,239.887695 C547.928711,241.694336 548.636719,244.111328 548.636719,247.138672 L548.636719,247.138672 L548.636719,248.408203 Z M599.90625,281.025391 C606.546875,281.025391 611.625,278.665365 615.140625,273.945312 C618.65625,269.22526 620.414062,262.926432 620.414062,255.048828 L620.414062,255.048828 L620.414062,254.023438 C620.414062,245.592448 618.65625,238.846029 615.140625,233.78418 C611.625,228.722331 606.514323,226.191406 599.808594,226.191406 C597.041667,226.191406 594.592122,226.761068 592.459961,227.900391 C590.327799,229.039714 588.496745,230.667318 586.966797,232.783203 L586.966797,232.783203 L586.966797,203.828125 L565.189453,203.828125 L565.189453,212.421875 L572.757812,213.886719 L572.757812,280 L585.0625,280 L586.087891,273.505859 C587.650391,275.947266 589.570964,277.810872 591.849609,279.09668 C594.128255,280.382487 596.813802,281.025391 599.90625,281.025391 Z M596.292969,269.941406 C594.046875,269.941406 592.150716,269.518229 590.604492,268.671875 C589.058268,267.825521 587.845703,266.588542 586.966797,264.960938 L586.966797,264.960938 L586.966797,242.646484 C587.845703,240.921224 589.05013,239.594727 590.580078,238.666992 C592.110026,237.739258 593.981771,237.275391 596.195312,237.275391 C599.841146,237.275391 602.420898,238.780924 603.93457,241.791992 C605.448242,244.80306 606.205078,248.880208 606.205078,254.023438 L606.205078,254.023438 L606.205078,255.048828 C606.205078,259.801432 605.472656,263.47168 604.007812,266.05957 C602.542969,268.647461 599.971354,269.941406 596.292969,269.941406 Z M652.005859,281.025391 C659.753255,281.025391 665.832357,278.527018 670.243164,273.530273 C674.653971,268.533529 676.859375,262.063802 676.859375,254.121094 L676.859375,254.121094 L676.859375,253.095703 C676.859375,245.185547 674.653971,238.723958 670.243164,233.710938 C665.832357,228.697917 659.720703,226.191406 651.908203,226.191406 C644.128255,226.191406 638.032878,228.706055 633.62207,233.735352 C629.211263,238.764648 627.005859,245.218099 627.005859,253.095703 L627.005859,253.095703 L627.005859,254.121094 C627.005859,262.063802 629.211263,268.533529 633.62207,273.530273 C638.032878,278.527018 644.160807,281.025391 652.005859,281.025391 Z M652.005859,270.087891 C648.229818,270.087891 645.495443,268.631185 643.802734,265.717773 C642.110026,262.804362 641.263672,258.938802 641.263672,254.121094 L641.263672,254.121094 L641.263672,253.095703 C641.263672,248.408203 642.110026,244.583333 643.802734,241.621094 C645.495443,238.658854 648.197266,237.177734 651.908203,237.177734 C655.619141,237.177734 658.33724,238.658854 660.0625,241.621094 C661.78776,244.583333 662.650391,248.408203 662.650391,253.095703 L662.650391,253.095703 L662.650391,254.121094 C662.650391,258.90625 661.795898,262.763672 660.086914,265.693359 C658.37793,268.623047 655.684245,270.087891 652.005859,270.087891 Z M704.056641,280 L704.056641,271.796875 L699.808594,271.259766 L708.158203,260.566406 L716.361328,271.210938 L711.527344,271.796875 L711.527344,280 L735.697266,280 L735.697266,271.455078 L730.716797,270.673828 L716.410156,253.291016 L729.984375,236.591797 L734.769531,235.761719 L734.769531,227.167969 L710.892578,227.167969 L710.892578,235.419922 L715.824219,236.005859 L707.962891,246.162109 L699.955078,236.005859 L704.789062,235.419922 L704.789062,227.167969 L681.009766,227.167969 L681.009766,235.761719 L685.941406,236.591797 L699.808594,253.291016 L685.453125,270.673828 L680.521484,271.455078 L680.521484,280 L704.056641,280 Z" id="Let’sTimebox" fill="#979797" fill-rule="nonzero"></path>
            <g id="Icon">
                <circle id="Outer" stroke="#979797" stroke-width="20" cx="140" cy="140" r="140"></circle>
                <circle id="Inner" fill="#979797" fill-rule="nonzero" cx="140" cy="140" r="40"></circle>
                <path d="M140,0 C62.680135,0 0,62.680135 0,140" id="Segment" stroke="#40E0D0" stroke-width="80"></path>
            </g>
        </g>
    </g>
</svg>