<?xml version="1.0" encoding="UTF-8"?>
<svg width="830px" height="400px" viewBox="0 0 830 400" version="1.1" xmlns="http://www.w3.org/2000/svg" xmlns:xlink="http://www.w3.org/1999/xlink">
    <title>Logo</title>
    <g id="Logo" stroke="none" stroke-width="1" fill="none" fill-rule="evenodd">
        <path d="M448.632812,231.171875 L448.632812,216.865234 L445.996094,216.865234 L445.996094,228.535156 L412.158203,228.535156 L412.158203,162.714844 L420.117188,162.714844 L420.117188,160.078125 L401.513672,160.078125 L401.513672,162.714844 L409.472656,162.714844 L409.472656,228.535156 L401.513672,228.535156 L401.513672,231.171875 L448.632812,231.171875 Z M482.373047,232.197266 C486.409505,232.197266 489.916992,231.60319 492.895508,230.415039 C495.874023,229.226888 498.404948,227.477214 500.488281,225.166016 L500.488281,225.166016 L499.072266,223.115234 C497.184245,225.263672 494.913737,226.875 492.260742,227.949219 C489.607747,229.023438 486.311849,229.560547 482.373047,229.560547 C476.839193,229.560547 472.200521,227.355143 468.457031,222.944336 C464.713542,218.533529 462.841797,213.138021 462.841797,206.757812 L462.841797,206.757812 L462.841797,202.998047 L502.441406,202.998047 L502.441406,198.945312 C502.441406,192.369792 500.561523,187.128906 496.801758,183.222656 C493.041992,179.316406 488.183594,177.363281 482.226562,177.363281 C476.009115,177.363281 470.784505,179.845378 466.552734,184.80957 C462.320964,189.773763 460.205078,196.048177 460.205078,203.632812 L460.205078,203.632812 L460.205078,206.757812 C460.205078,213.984375 462.394206,220.030924 466.772461,224.897461 C471.150716,229.763997 476.350911,232.197266 482.373047,232.197266 Z M499.804688,200.361328 L463.378906,200.361328 L463.232422,200.068359 C463.688151,194.339193 465.657552,189.562174 469.140625,185.737305 C472.623698,181.912435 476.985677,180 482.226562,180 C487.434896,180 491.666667,181.782227 494.921875,185.34668 C498.177083,188.911133 499.804688,193.378906 499.804688,198.75 L499.804688,198.75 L499.804688,200.361328 Z M532.421875,232.197266 C533.723958,232.197266 534.887695,232.148438 535.913086,232.050781 C536.938477,231.953125 537.939453,231.774089 538.916016,231.513672 L538.916016,231.513672 L538.427734,229.121094 C536.995443,229.283854 535.872396,229.397786 535.058594,229.462891 C534.244792,229.527995 533.317057,229.560547 532.275391,229.560547 C529.866536,229.560547 527.929688,228.640951 526.464844,226.801758 C525,224.962565 524.267578,221.878255 524.267578,217.548828 L524.267578,217.548828 L524.267578,181.025391 L537.255859,181.025391 L537.255859,178.339844 L524.267578,178.339844 L524.267578,164.082031 L521.582031,164.082031 L521.582031,178.339844 L511.816406,178.339844 L511.816406,181.025391 L521.582031,181.025391 L521.582031,217.548828 C521.582031,222.692057 522.501628,226.419271 524.34082,228.730469 C526.180013,231.041667 528.873698,232.197266 532.421875,232.197266 Z M549.316406,176.923828 C550.94401,175.198568 552.213542,173.196615 553.125,170.917969 C554.036458,168.639323 554.492188,166.051432 554.492188,163.154297 L554.492188,163.154297 L554.492188,155 L551.855469,155 L551.855469,163.251953 C551.855469,165.693359 551.505534,167.833659 550.805664,169.672852 C550.105794,171.512044 549.007161,173.408203 547.509766,175.361328 L547.509766,175.361328 L549.316406,176.923828 Z M579.248047,232.197266 C584.847005,232.197266 589.339193,230.911458 592.724609,228.339844 C596.110026,225.768229 597.802734,222.415365 597.802734,218.28125 C597.802734,214.049479 596.280924,210.753581 593.237305,208.393555 C590.193685,206.033529 585.725911,204.169922 579.833984,202.802734 C573.453776,201.337891 569.189453,199.628906 567.041016,197.675781 C564.892578,195.722656 563.818359,193.36263 563.818359,190.595703 C563.818359,187.796224 565.087891,185.330404 567.626953,183.198242 C570.166016,181.066081 573.909505,180 578.857422,180 C582.307943,180 585.343424,180.504557 587.963867,181.513672 C590.58431,182.522786 592.740885,183.971354 594.433594,185.859375 L594.433594,185.859375 L594.433594,194.404297 L597.070312,194.404297 L597.070312,184.541016 C595.117188,182.360026 592.537435,180.61849 589.331055,179.316406 C586.124674,178.014323 582.633464,177.363281 578.857422,177.363281 C573.453776,177.363281 569.156901,178.640951 565.966797,181.196289 C562.776693,183.751628 561.181641,186.917318 561.181641,190.693359 C561.181641,194.729818 562.605794,197.830404 565.454102,199.995117 C568.302409,202.159831 572.835286,203.893229 579.052734,205.195312 C585.009766,206.497396 589.18457,208.295898 591.577148,210.59082 C593.969727,212.885742 595.166016,215.432943 595.166016,218.232422 C595.166016,221.227214 593.733724,223.863932 590.869141,226.142578 C588.004557,228.421224 584.130859,229.560547 579.248047,229.560547 C576.090495,229.560547 573.095703,229.104818 570.263672,228.193359 C567.431641,227.281901 565.055339,225.800781 563.134766,223.75 L563.134766,223.75 L563.134766,215.791016 L560.498047,215.791016 L560.498047,225.214844 C562.679036,227.395833 565.388997,229.104818 568.62793,230.341797 C571.866862,231.578776 575.406901,232.197266 579.248047,232.197266 Z M446.386719,331.171875 L446.386719,322.626953 L438.769531,321.162109 L438.769531,271.064453 L451.855469,271.064453 L452.441406,279.023438 L463.378906,279.023438 L463.378906,260.078125 L400,260.078125 L400,279.023438 L410.888672,279.023438 L411.474609,271.064453 L424.511719,271.064453 L424.511719,321.162109 L416.894531,322.626953 L416.894531,331.171875 L446.386719,331.171875 Z M489.0625,265.693359 L489.0625,255 L474.804688,255 L474.804688,265.693359 L489.0625,265.693359 Z M495.898438,331.171875 L495.898438,322.626953 L489.0625,321.162109 L489.0625,278.339844 L467.1875,278.339844 L467.1875,286.933594 L474.804688,288.398438 L474.804688,321.162109 L467.919922,322.626953 L467.919922,331.171875 L495.898438,331.171875 Z M526.904297,331.171875 L526.904297,322.626953 L520.751953,321.162109 L520.751953,292.646484 C521.695964,291.311849 522.892253,290.27832 524.34082,289.545898 C525.789388,288.813477 527.473958,288.447266 529.394531,288.447266 C531.998698,288.447266 533.951823,289.25293 535.253906,290.864258 C536.55599,292.475586 537.207031,295.234375 537.207031,299.140625 L537.207031,299.140625 L537.207031,321.162109 L531.445312,322.626953 L531.445312,331.171875 L557.177734,331.171875 L557.177734,322.626953 L551.416016,321.162109 L551.416016,296.455078 C551.416016,295.999349 551.39974,295.551758 551.367188,295.112305 C551.334635,294.672852 551.318359,294.14388 551.318359,293.525391 C552.197266,291.930339 553.377279,290.685221 554.858398,289.790039 C556.339518,288.894857 558.089193,288.447266 560.107422,288.447266 C562.679036,288.447266 564.615885,289.228516 565.917969,290.791016 C567.220052,292.353516 567.871094,295.136719 567.871094,299.140625 L567.871094,299.140625 L567.871094,321.162109 L561.71875,322.626953 L561.71875,331.171875 L589.013672,331.171875 L589.013672,322.626953 L582.128906,321.162109 L582.128906,299.189453 C582.128906,291.832682 580.623372,286.355794 577.612305,282.758789 C574.601237,279.161784 570.491536,277.363281 565.283203,277.363281 C561.767578,277.363281 558.707682,278.160807 556.103516,279.755859 C553.499349,281.350911 551.383464,283.564453 549.755859,286.396484 C548.51888,283.369141 546.695964,281.106771 544.287109,279.609375 C541.878255,278.111979 538.98112,277.363281 535.595703,277.363281 C532.242839,277.363281 529.288737,278.055013 526.733398,279.438477 C524.17806,280.82194 522.054036,282.783203 520.361328,285.322266 L520.361328,285.322266 L519.775391,278.339844 L498.925781,278.339844 L498.925781,286.933594 L506.542969,288.398438 L506.542969,321.162109 L499.658203,322.626953 L499.658203,331.171875 L526.904297,331.171875 Z M618.408203,332.197266 C622.672526,332.197266 626.538086,331.611328 630.004883,330.439453 C633.47168,329.267578 636.295573,327.81901 638.476562,326.09375 L638.476562,326.09375 L634.619141,317.304688 C632.145182,318.671875 629.866536,319.672852 627.783203,320.307617 C625.69987,320.942383 623.079427,321.259766 619.921875,321.259766 C616.373698,321.259766 613.566081,320.136719 611.499023,317.890625 C609.431966,315.644531 608.268229,312.779948 608.007812,309.296875 L608.007812,309.296875 L608.105469,309.003906 L639.648438,309.003906 L639.648438,301.240234 C639.648438,293.916016 637.679036,288.105469 633.740234,283.808594 C629.801432,279.511719 624.267578,277.36297 617.138672,277.36297 C609.879557,277.330729 604.093424,279.853516 599.780273,284.931641 C595.467122,290.009766 593.310547,296.471354 593.310547,304.316406 L593.310547,304.316406 L593.310547,306.269531 C593.310547,313.789062 595.589193,319.990234 600.146484,324.873047 C604.703776,329.755859 610.791016,332.197266 618.408203,332.197266 Z M625.683594,299.580078 L608.203125,299.580078 L608.056641,299.335938 C608.414714,296.048177 609.358724,293.395182 610.888672,291.376953 C612.41862,289.358724 614.501953,288.349609 617.138672,288.349609 C620.003255,288.349609 622.143555,289.25293 623.55957,291.05957 C624.975586,292.866211 625.683594,295.283203 625.683594,298.310547 L625.683594,298.310547 L625.683594,299.580078 Z M676.953125,332.197266 C683.59375,332.197266 688.671875,329.83724 692.1875,325.117188 C695.703125,320.397135 697.460938,314.098307 697.460938,306.220703 L697.460938,306.220703 L697.460938,305.195312 C697.460938,296.764323 695.703125,290.017904 692.1875,284.956055 C688.671875,279.894206 683.561198,277.363281 676.855469,277.363281 C674.088542,277.363281 671.638997,277.932943 669.506836,279.072266 C667.374674,280.211589 665.54362,281.839193 664.013672,283.955078 L664.013672,283.955078 L664.013672,255 L642.236328,255 L642.236328,263.59375 L649.804688,265.058594 L649.804688,331.171875 L662.109375,331.171875 L663.134766,324.677734 C664.697266,327.119141 666.617839,328.982747 668.896484,330.268555 C671.17513,331.554362 673.860677,332.197266 676.953125,332.197266 Z M673.339844,321.113281 C671.09375,321.113281 669.197591,320.690104 667.651367,319.84375 C666.105143,318.997396 664.892578,317.760417 664.013672,316.132812 L664.013672,316.132812 L664.013672,293.818359 C664.892578,292.093099 666.097005,290.766602 667.626953,289.838867 C669.156901,288.911133 671.028646,288.447266 673.242188,288.447266 C676.888021,288.447266 679.467773,289.952799 680.981445,292.963867 C682.495117,295.974935 683.251953,300.052083 683.251953,305.195312 L683.251953,305.195312 L683.251953,306.220703 C683.251953,310.973307 682.519531,314.643555 681.054688,317.231445 C679.589844,319.819336 677.018229,321.113281 673.339844,321.113281 Z M729.052734,332.197266 C736.80013,332.197266 742.879232,329.698893 747.290039,324.702148 C751.700846,319.705404 753.90625,313.235677 753.90625,305.292969 L753.90625,305.292969 L753.90625,304.267578 C753.90625,296.357422 751.700846,289.895833 747.290039,284.882812 C742.879232,279.869792 736.767578,277.363281 728.955078,277.363281 C721.17513,277.363281 715.079753,279.87793 710.668945,284.907227 C706.258138,289.936523 704.052734,296.389974 704.052734,304.267578 L704.052734,304.267578 L704.052734,305.292969 C704.052734,313.235677 706.258138,319.705404 710.668945,324.702148 C715.079753,329.698893 721.207682,332.197266 729.052734,332.197266 Z M729.052734,321.259766 C725.276693,321.259766 722.542318,319.80306 720.849609,316.889648 C719.156901,313.976237 718.310547,310.110677 718.310547,305.292969 L718.310547,305.292969 L718.310547,304.267578 C718.310547,299.580078 719.156901,295.755208 720.849609,292.792969 C722.542318,289.830729 725.244141,288.349609 728.955078,288.349609 C732.666016,288.349609 735.384115,289.830729 737.109375,292.792969 C738.834635,295.755208 739.697266,299.580078 739.697266,304.267578 L739.697266,304.267578 L739.697266,305.292969 C739.697266,310.078125 738.842773,313.935547 737.133789,316.865234 C735.424805,319.794922 732.73112,321.259766 729.052734,321.259766 Z M781.103516,331.171875 L781.103516,322.96875 L776.855469,322.431641 L785.205078,311.738281 L793.408203,322.382812 L788.574219,322.96875 L788.574219,331.171875 L812.744141,331.171875 L812.744141,322.626953 L807.763672,321.845703 L793.457031,304.462891 L807.03125,287.763672 L811.816406,286.933594 L811.816406,278.339844 L787.939453,278.339844 L787.939453,286.591797 L792.871094,287.177734 L785.009766,297.333984 L777.001953,287.177734 L781.835938,286.591797 L781.835938,278.339844 L758.056641,278.339844 L758.056641,286.933594 L762.988281,287.763672 L776.855469,304.462891 L762.5,321.845703 L757.568359,322.626953 L757.568359,331.171875 L781.103516,331.171875 Z" id="Let’sTimebox" fill="#979797" fill-rule="nonzero"></path>
        <g id="Icon" transform="translate(60.000000, 60.000000)">
            <circle id="Outer" stroke="#979797" stroke-width="20" cx="140" cy="140" r="140"></circle>
            <circle id="Inner" fill="#979797" fill-rule="nonzero" cx="140" cy="140" r="40"></circle>
            <path d="M140,0 C62.680135,0 0,62.680135 0,140" id="Segment" stroke="#40E0D0" stroke-width="80"></path>
        </g>
    </g>
</svg>