<?xml version="1.0" encoding="UTF-8"?>
<svg width="832px" height="370px" viewBox="0 0 832 370" version="1.1" xmlns="http://www.w3.org/2000/svg" xmlns:xlink="http://www.w3.org/1999/xlink">
    <title>logo</title>
    <g id="logo" stroke="none" stroke-width="1" fill="none" fill-rule="evenodd">
        <g id="Icon" transform="translate(60.000000, 60.000000)">
            <circle id="Outer" stroke="#979797" stroke-width="20" cx="140" cy="140" r="140"></circle>
            <circle id="Inner" fill="#979797" fill-rule="nonzero" cx="140" cy="140" r="40"></circle>
            <path d="M140,0 C62.680135,0 0,62.680135 0,140" id="Segment" stroke="#40E0D0" stroke-width="80"></path>
        </g>
        <path d="M452.441406,229 L452.441406,214.058594 L447.265625,214.058594 L446.826172,224.068359 L417.285156,224.068359 L417.285156,162.886719 L425.244141,162.251953 L425.244141,157.90625 L403.466797,157.90625 L403.466797,162.251953 L411.425781,162.886719 L411.425781,224.068359 L403.466797,224.703125 L403.466797,229 L452.441406,229 Z M485.546875,230.025391 C489.746094,230.025391 493.359375,229.415039 496.386719,228.194336 C499.414062,226.973633 501.920573,225.321615 503.90625,223.238281 L503.90625,223.238281 L501.416016,219.234375 C499.593099,221.122396 497.395833,222.570964 494.824219,223.580078 C492.252604,224.589193 489.160156,225.09375 485.546875,225.09375 C480.403646,225.09375 476.245117,223.083659 473.071289,219.063477 C469.897461,215.043294 468.310547,210.070964 468.310547,204.146484 L468.310547,204.146484 L468.310547,202.730469 L505.615234,202.730469 L505.615234,197.75 C505.615234,190.914062 503.759766,185.445312 500.048828,181.34375 C496.337891,177.242188 491.24349,175.191406 484.765625,175.191406 C478.613281,175.191406 473.364258,177.681641 469.018555,182.662109 C464.672852,187.642578 462.5,193.908854 462.5,201.460938 L462.5,201.460938 L462.5,204.146484 C462.5,211.666016 464.68099,217.859049 469.042969,222.725586 C473.404948,227.592122 478.90625,230.025391 485.546875,230.025391 Z M499.804688,197.798828 L468.847656,197.798828 L468.75,197.554688 C469.238281,192.574219 470.955404,188.431966 473.901367,185.12793 C476.847331,181.823893 480.46875,180.171875 484.765625,180.171875 C489.388021,180.171875 493.05013,181.718099 495.751953,184.810547 C498.453776,187.902995 499.804688,191.744141 499.804688,196.333984 L499.804688,196.333984 L499.804688,197.798828 Z M535.351562,230.025391 C536.751302,230.025391 538.151042,229.911458 539.550781,229.683594 C540.950521,229.455729 542.138672,229.130208 543.115234,228.707031 L543.115234,228.707031 L542.236328,224.361328 C541.064453,224.556641 540.030924,224.694987 539.135742,224.776367 C538.24056,224.857747 537.320964,224.898438 536.376953,224.898438 C534.29362,224.898438 532.625326,224.174154 531.37207,222.725586 C530.118815,221.277018 529.492188,218.827474 529.492188,215.376953 L529.492188,215.376953 L529.492188,180.953125 L541.113281,180.953125 L541.113281,176.167969 L529.492188,176.167969 L529.492188,162.642578 L523.583984,162.642578 L523.583984,176.167969 L514.501953,176.167969 L514.501953,180.953125 L523.583984,180.953125 L523.583984,215.376953 C523.583984,220.455078 524.617513,224.166016 526.68457,226.509766 C528.751628,228.853516 531.640625,230.025391 535.351562,230.025391 Z M553.613281,177.486328 C555.729167,175.533203 557.397461,173.124349 558.618164,170.259766 C559.838867,167.395182 560.449219,164.432943 560.449219,161.373047 L560.449219,161.373047 L560.449219,152.828125 L554.638672,152.828125 L554.638672,161.519531 C554.638672,164.123698 554.272461,166.483724 553.540039,168.599609 C552.807617,170.715495 551.676432,172.83138 550.146484,174.947266 L550.146484,174.947266 L553.613281,177.486328 Z M585.644531,230.025391 C591.503906,230.025391 596.21582,228.666341 599.780273,225.948242 C603.344727,223.230143 605.126953,219.673828 605.126953,215.279297 C605.126953,211.11263 603.564453,207.816732 600.439453,205.391602 C597.314453,202.966471 592.610677,201.054036 586.328125,199.654297 C580.826823,198.44987 577.156576,197.05013 575.317383,195.455078 C573.47819,193.860026 572.558594,191.841797 572.558594,189.400391 C572.558594,186.926432 573.624674,184.769857 575.756836,182.930664 C577.888997,181.091471 581.08724,180.171875 585.351562,180.171875 C588.248698,180.171875 590.812174,180.595052 593.041992,181.441406 C595.27181,182.28776 597.119141,183.475911 598.583984,185.005859 L598.583984,185.005859 L599.267578,192.476562 L604.052734,192.476562 L603.808594,181.783203 C601.790365,179.764974 599.17806,178.161784 595.97168,176.973633 C592.765299,175.785482 589.22526,175.191406 585.351562,175.191406 C579.752604,175.191406 575.244141,176.583008 571.826172,179.366211 C568.408203,182.149414 566.699219,185.559245 566.699219,189.595703 C566.699219,193.664714 568.221029,196.830404 571.264648,199.092773 C574.308268,201.355143 578.971354,203.169922 585.253906,204.537109 C590.559896,205.708984 594.230143,207.222656 596.264648,209.078125 C598.299154,210.933594 599.316406,213.098307 599.316406,215.572266 C599.316406,218.208984 598.095703,220.455078 595.654297,222.310547 C593.212891,224.166016 589.876302,225.09375 585.644531,225.09375 C583.040365,225.09375 580.541992,224.743815 578.149414,224.043945 C575.756836,223.344076 573.779297,222.212891 572.216797,220.650391 L572.216797,220.650391 L571.386719,213.130859 L566.650391,213.130859 L566.650391,223.775391 C568.994141,225.761068 571.769206,227.299154 574.975586,228.389648 C578.181966,229.480143 581.738281,230.025391 585.644531,230.025391 Z M448.339844,329 L448.339844,320.455078 L440.722656,318.990234 L440.722656,268.892578 L453.808594,268.892578 L454.394531,276.851562 L465.332031,276.851562 L465.332031,257.90625 L401.953125,257.90625 L401.953125,276.851562 L412.841797,276.851562 L413.427734,268.892578 L426.464844,268.892578 L426.464844,318.990234 L418.847656,320.455078 L418.847656,329 L448.339844,329 Z M491.015625,263.521484 L491.015625,252.828125 L476.757812,252.828125 L476.757812,263.521484 L491.015625,263.521484 Z M497.851562,329 L497.851562,320.455078 L491.015625,318.990234 L491.015625,276.167969 L469.140625,276.167969 L469.140625,284.761719 L476.757812,286.226562 L476.757812,318.990234 L469.873047,320.455078 L469.873047,329 L497.851562,329 Z M528.857422,329 L528.857422,320.455078 L522.705078,318.990234 L522.705078,290.474609 C523.649089,289.139974 524.845378,288.106445 526.293945,287.374023 C527.742513,286.641602 529.427083,286.275391 531.347656,286.275391 C533.951823,286.275391 535.904948,287.081055 537.207031,288.692383 C538.509115,290.303711 539.160156,293.0625 539.160156,296.96875 L539.160156,296.96875 L539.160156,318.990234 L533.398438,320.455078 L533.398438,329 L559.130859,329 L559.130859,320.455078 L553.369141,318.990234 L553.369141,294.283203 C553.369141,293.827474 553.352865,293.379883 553.320312,292.94043 C553.28776,292.500977 553.271484,291.972005 553.271484,291.353516 C554.150391,289.758464 555.330404,288.513346 556.811523,287.618164 C558.292643,286.722982 560.042318,286.275391 562.060547,286.275391 C564.632161,286.275391 566.56901,287.056641 567.871094,288.619141 C569.173177,290.181641 569.824219,292.964844 569.824219,296.96875 L569.824219,296.96875 L569.824219,318.990234 L563.671875,320.455078 L563.671875,329 L590.966797,329 L590.966797,320.455078 L584.082031,318.990234 L584.082031,297.017578 C584.082031,289.660807 582.576497,284.183919 579.56543,280.586914 C576.554362,276.989909 572.444661,275.191406 567.236328,275.191406 C563.720703,275.191406 560.660807,275.988932 558.056641,277.583984 C555.452474,279.179036 553.336589,281.392578 551.708984,284.224609 C550.472005,281.197266 548.649089,278.934896 546.240234,277.4375 C543.83138,275.940104 540.934245,275.191406 537.548828,275.191406 C534.195964,275.191406 531.241862,275.883138 528.686523,277.266602 C526.131185,278.650065 524.007161,280.611328 522.314453,283.150391 L522.314453,283.150391 L521.728516,276.167969 L500.878906,276.167969 L500.878906,284.761719 L508.496094,286.226562 L508.496094,318.990234 L501.611328,320.455078 L501.611328,329 L528.857422,329 Z M620.361328,330.025391 C624.625651,330.025391 628.491211,329.439453 631.958008,328.267578 C635.424805,327.095703 638.248698,325.647135 640.429688,323.921875 L640.429688,323.921875 L636.572266,315.132812 C634.098307,316.5 631.819661,317.500977 629.736328,318.135742 C627.652995,318.770508 625.032552,319.087891 621.875,319.087891 C618.326823,319.087891 615.519206,317.964844 613.452148,315.71875 C611.385091,313.472656 610.221354,310.608073 609.960938,307.125 L609.960938,307.125 L610.058594,306.832031 L641.601562,306.832031 L641.601562,299.068359 C641.601562,291.744141 639.632161,285.933594 635.693359,281.636719 C631.754557,277.339844 626.220703,275.191095 619.091797,275.191095 C611.832682,275.158854 606.046549,277.681641 601.733398,282.759766 C597.420247,287.837891 595.263672,294.299479 595.263672,302.144531 L595.263672,302.144531 L595.263672,304.097656 C595.263672,311.617188 597.542318,317.818359 602.099609,322.701172 C606.656901,327.583984 612.744141,330.025391 620.361328,330.025391 Z M627.636719,297.408203 L610.15625,297.408203 L610.009766,297.164062 C610.367839,293.876302 611.311849,291.223307 612.841797,289.205078 C614.371745,287.186849 616.455078,286.177734 619.091797,286.177734 C621.95638,286.177734 624.09668,287.081055 625.512695,288.887695 C626.928711,290.694336 627.636719,293.111328 627.636719,296.138672 L627.636719,296.138672 L627.636719,297.408203 Z M678.90625,330.025391 C685.546875,330.025391 690.625,327.665365 694.140625,322.945312 C697.65625,318.22526 699.414062,311.926432 699.414062,304.048828 L699.414062,304.048828 L699.414062,303.023438 C699.414062,294.592448 697.65625,287.846029 694.140625,282.78418 C690.625,277.722331 685.514323,275.191406 678.808594,275.191406 C676.041667,275.191406 673.592122,275.761068 671.459961,276.900391 C669.327799,278.039714 667.496745,279.667318 665.966797,281.783203 L665.966797,281.783203 L665.966797,252.828125 L644.189453,252.828125 L644.189453,261.421875 L651.757812,262.886719 L651.757812,329 L664.0625,329 L665.087891,322.505859 C666.650391,324.947266 668.570964,326.810872 670.849609,328.09668 C673.128255,329.382487 675.813802,330.025391 678.90625,330.025391 Z M675.292969,318.941406 C673.046875,318.941406 671.150716,318.518229 669.604492,317.671875 C668.058268,316.825521 666.845703,315.588542 665.966797,313.960938 L665.966797,313.960938 L665.966797,291.646484 C666.845703,289.921224 668.05013,288.594727 669.580078,287.666992 C671.110026,286.739258 672.981771,286.275391 675.195312,286.275391 C678.841146,286.275391 681.420898,287.780924 682.93457,290.791992 C684.448242,293.80306 685.205078,297.880208 685.205078,303.023438 L685.205078,303.023438 L685.205078,304.048828 C685.205078,308.801432 684.472656,312.47168 683.007812,315.05957 C681.542969,317.647461 678.971354,318.941406 675.292969,318.941406 Z M731.005859,330.025391 C738.753255,330.025391 744.832357,327.527018 749.243164,322.530273 C753.653971,317.533529 755.859375,311.063802 755.859375,303.121094 L755.859375,303.121094 L755.859375,302.095703 C755.859375,294.185547 753.653971,287.723958 749.243164,282.710938 C744.832357,277.697917 738.720703,275.191406 730.908203,275.191406 C723.128255,275.191406 717.032878,277.706055 712.62207,282.735352 C708.211263,287.764648 706.005859,294.218099 706.005859,302.095703 L706.005859,302.095703 L706.005859,303.121094 C706.005859,311.063802 708.211263,317.533529 712.62207,322.530273 C717.032878,327.527018 723.160807,330.025391 731.005859,330.025391 Z M731.005859,319.087891 C727.229818,319.087891 724.495443,317.631185 722.802734,314.717773 C721.110026,311.804362 720.263672,307.938802 720.263672,303.121094 L720.263672,303.121094 L720.263672,302.095703 C720.263672,297.408203 721.110026,293.583333 722.802734,290.621094 C724.495443,287.658854 727.197266,286.177734 730.908203,286.177734 C734.619141,286.177734 737.33724,287.658854 739.0625,290.621094 C740.78776,293.583333 741.650391,297.408203 741.650391,302.095703 L741.650391,302.095703 L741.650391,303.121094 C741.650391,307.90625 740.795898,311.763672 739.086914,314.693359 C737.37793,317.623047 734.684245,319.087891 731.005859,319.087891 Z M783.056641,329 L783.056641,320.796875 L778.808594,320.259766 L787.158203,309.566406 L795.361328,320.210938 L790.527344,320.796875 L790.527344,329 L814.697266,329 L814.697266,320.455078 L809.716797,319.673828 L795.410156,302.291016 L808.984375,285.591797 L813.769531,284.761719 L813.769531,276.167969 L789.892578,276.167969 L789.892578,284.419922 L794.824219,285.005859 L786.962891,295.162109 L778.955078,285.005859 L783.789062,284.419922 L783.789062,276.167969 L760.009766,276.167969 L760.009766,284.761719 L764.941406,285.591797 L778.808594,302.291016 L764.453125,319.673828 L759.521484,320.455078 L759.521484,329 L783.056641,329 Z" id="Let’sTimebox" fill="#979797" fill-rule="nonzero"></path>
    </g>
</svg>